<?xml version="1.0" encoding="UTF-8" standalone="no"?>
<svg
   xmlns:dc="http://purl.org/dc/elements/1.1/"
   xmlns:cc="http://creativecommons.org/ns#"
   xmlns:rdf="http://www.w3.org/1999/02/22-rdf-syntax-ns#"
   xmlns:svg="http://www.w3.org/2000/svg"
   xmlns="http://www.w3.org/2000/svg"
   xmlns:sodipodi="http://sodipodi.sourceforge.net/DTD/sodipodi-0.dtd"
   xmlns:inkscape="http://www.inkscape.org/namespaces/inkscape"
   width="128"
   height="128"
   viewBox="0 0 33.866666 33.866668"
   version="1.1"
   id="svg8"
   inkscape:version="1.0.1 (3bc2e813f5, 2020-09-07)"
   sodipodi:docname="drzewka.svg">
  <defs
     id="defs2" />
  <sodipodi:namedview
     id="base"
     pagecolor="#ffffff"
     bordercolor="#666666"
     borderopacity="1.0"
     inkscape:pageopacity="0.0"
     inkscape:pageshadow="2"
     inkscape:zoom="2.8"
     inkscape:cx="62.646609"
     inkscape:cy="70.088007"
     inkscape:document-units="mm"
     inkscape:current-layer="layer1"
     showgrid="false"
     units="px"
     showguides="true"
     inkscape:window-width="1920"
     inkscape:window-height="1057"
     inkscape:window-x="-8"
     inkscape:window-y="-8"
     inkscape:window-maximized="1"
     inkscape:document-rotation="0"
     inkscape:guide-bbox="true" />
  <metadata
     id="metadata5">
    <rdf:RDF>
      <cc:Work
         rdf:about="">
        <dc:format>image/svg+xml</dc:format>
        <dc:type
           rdf:resource="http://purl.org/dc/dcmitype/StillImage" />
        <dc:title></dc:title>
      </cc:Work>
    </rdf:RDF>
  </metadata>
  <g
     inkscape:label="Layer 1"
     inkscape:groupmode="layer"
     id="layer1"
     transform="translate(0,-263.13332)">
    <g
       id="g1232"
       transform="matrix(1.0323431,0,0,1.0323431,-0.6958681,-8.5770928)">
      <path
         id="path894-5-3-6-4"
         style="fill:#7a5136;fill-opacity:1;stroke:none;stroke-width:0.332959;stroke-linecap:butt;stroke-linejoin:miter;stroke-miterlimit:4;stroke-dasharray:none;stroke-opacity:1"
         d="m 12.657719,278.20985 c -0.01281,0.0188 -0.14063,0.33756 -0.6397,1.12856 -0.04364,2.27974 -0.78701,3.56256 -1.440719,4.03573 -0.0064,-0.89389 -0.01648,-1.80826 -0.01466,-2.63802 -0.127701,-0.89947 0.410736,-2.80214 -1.2493691,-1.06743 0.017908,1.38758 -0.062955,3.08064 -0.1892557,4.82207 -0.9752929,-0.53621 -2.0105068,-1.79795 -2.0748321,-3.94295 -1.5637506,-1.582 -0.8022476,-1.27637 -0.9225351,-0.45608 0.00844,3.76707 1.6124768,5.25653 2.893312,5.72788 -0.3452693,4.04911 -0.9004149,8.03449 -1.148804,8.86762 l 3.37099,-0.0823 c -0.427695,-1.07492 -0.603147,-5.51398 -0.657857,-9.90694 0.837809,-0.35231 2.016554,-1.77276 2.022454,-5.81572 -0.03839,-0.41014 0.06377,-0.69123 0.05097,-0.67251 z" />
      <path
         id="path857-11-9"
         style="fill:#378c3d;fill-opacity:1;stroke-width:1.21889;stroke-linecap:round;stroke-linejoin:round"
         d="m 10.747811,267.13094 a 4.8419571,4.7115576 0 0 0 -3.1426169,1.12729 3.5383535,3.5604383 0 0 0 -1.353653,-0.27056 3.5383535,3.5604383 0 0 0 -3.5383538,3.56045 3.5383535,3.5604383 0 0 0 0.2420979,1.29299 4.1502495,4.2029235 0 0 0 -1.8913884,3.5253 4.1502495,4.2029235 0 0 0 3.4184681,4.13669 3.9906245,3.3195062 0 0 0 3.658238,1.99395 3.9906245,3.3195062 0 0 0 2.2574461,-0.58267 5.0015826,4.2296935 0 0 0 2.637471,0.63595 5.0015826,4.2296935 0 0 0 5.001415,-4.22977 5.0015826,4.2296935 0 0 0 -0.1775,-1.11731 4.6557283,4.4973958 0 0 0 1.294875,-3.11187 4.6557283,4.4973958 0 0 0 -4.136034,-4.46929 4.8419571,4.7115576 0 0 0 -4.270465,-2.49115 z" />
      <path
         id="path857-1-9-1"
         style="fill:#307a36;fill-opacity:1;stroke-width:1.21889;stroke-linecap:round;stroke-linejoin:round"
         d="m 2.7275167,273.00232 a 4.1502494,4.2029235 0 0 0 -1.6634976,3.36392 4.1502494,4.2029235 0 0 0 3.4184798,4.13692 3.9906245,3.3195062 0 0 0 3.6580166,1.99361 3.9906245,3.3195062 0 0 0 2.2578005,-0.58255 5.0015826,4.2296936 0 0 0 2.637013,0.63595 5.0015826,4.2296936 0 0 0 4.566585,-2.50519 5.0015826,4.2296936 0 0 1 -3.35353,1.09204 5.0015826,4.2296936 0 0 1 -2.637013,-0.63598 3.9906245,3.3195062 0 0 1 -2.2578004,0.58256 3.9906245,3.3195062 0 0 1 -3.6580182,-1.99432 4.1502494,4.2029235 0 0 1 -3.4184797,-4.13621 4.1502494,4.2029235 0 0 1 0.4706963,-1.94372 5.2372725,3.7934638 0 0 1 -0.020238,-0.007 z" />
      <path
         id="path894-5-3-2-9-2"
         style="fill:#8a5d3c;fill-opacity:1;stroke:none;stroke-width:0.332958;stroke-linecap:butt;stroke-linejoin:miter;stroke-miterlimit:4;stroke-dasharray:none;stroke-opacity:1"
         d="m 6.4821079,282.78406 c 0.5451273,1.83663 1.6224617,2.69887 2.5378453,3.03574 -0.3452693,4.0491 -0.900415,8.0345 -1.148804,8.86764 l 3.4074768,0.007 c -0.427696,-1.07494 -0.639633,-5.60297 -0.694343,-9.99593 0.384228,-0.16158 0.839108,-0.55258 1.220735,-1.31338 -0.607584,0.15332 -1.236637,0.23114 -1.8688135,0.23119 -0.2512893,9e-5 -0.5023908,-0.0117 -0.7521354,-0.0366 -0.019146,0.30248 -0.037796,0.60456 -0.060058,0.91143 -0.4323452,-0.2377 -0.876287,-0.61868 -1.2423851,-1.15527 -0.4888069,-0.13671 -0.9583268,-0.32178 -1.3995168,-0.55163 z"
         sodipodi:nodetypes="cccccccccccc" />
      <path
         id="path894-5-3-6"
         style="fill:#7a5136;fill-opacity:1;stroke:none;stroke-width:0.332959;stroke-linecap:butt;stroke-linejoin:miter;stroke-miterlimit:4;stroke-dasharray:none;stroke-opacity:1"
         d="m 26.705012,278.21656 c -0.01281,0.0188 -0.14063,0.33756 -0.6397,1.12856 -0.04363,2.27974 -0.787009,3.56256 -1.440718,4.03573 -0.0064,-0.89389 -0.01648,-1.80826 -0.01466,-2.63802 -0.127701,-0.89947 0.410736,-2.80214 -1.249369,-1.06743 0.01791,1.38758 -0.06296,3.08064 -0.189256,4.82207 -0.975293,-0.53621 -2.010507,-1.79795 -2.074832,-3.94295 -1.56375,-1.582 -0.802247,-1.27637 -0.922535,-0.45608 0.0084,3.76707 1.612477,5.25653 2.893312,5.72788 -0.345269,4.04911 -0.900415,8.03449 -1.148804,8.86762 l 3.37099,-0.0823 c -0.427695,-1.07492 -0.603147,-5.51398 -0.657857,-9.90694 0.837809,-0.35231 2.016555,-1.77276 2.022454,-5.81572 -0.03839,-0.41014 0.06377,-0.69123 0.05097,-0.67251 z" />
      <path
         id="path857-11"
         style="fill:#378c3d;fill-opacity:1;stroke-width:1.21889;stroke-linecap:round;stroke-linejoin:round"
         d="m 24.795104,267.13765 a 4.8419571,4.7115576 0 0 0 -3.142617,1.12729 3.5383535,3.5604383 0 0 0 -1.353653,-0.27056 3.5383535,3.5604383 0 0 0 -3.538354,3.56045 3.5383535,3.5604383 0 0 0 0.242098,1.29299 4.1502495,4.2029235 0 0 0 -1.891388,3.5253 4.1502495,4.2029235 0 0 0 3.418468,4.13669 3.9906245,3.3195062 0 0 0 3.658238,1.99395 3.9906245,3.3195062 0 0 0 2.257446,-0.58267 5.0015826,4.2296935 0 0 0 2.637471,0.63595 5.0015826,4.2296935 0 0 0 5.001416,-4.22977 5.0015826,4.2296935 0 0 0 -0.177501,-1.11731 4.6557283,4.4973958 0 0 0 1.294875,-3.11187 4.6557283,4.4973958 0 0 0 -4.136033,-4.46929 4.8419571,4.7115576 0 0 0 -4.270466,-2.49115 z" />
      <path
         id="path857-1-9"
         style="fill:#307a36;fill-opacity:1;stroke-width:1.21889;stroke-linecap:round;stroke-linejoin:round"
         d="m 16.77481,273.00903 a 4.1502494,4.2029235 0 0 0 -1.663498,3.36392 4.1502494,4.2029235 0 0 0 3.41848,4.13692 3.9906245,3.3195062 0 0 0 3.658017,1.99361 3.9906245,3.3195062 0 0 0 2.257801,-0.58255 5.0015826,4.2296936 0 0 0 2.637012,0.63595 5.0015826,4.2296936 0 0 0 4.566585,-2.50519 5.0015826,4.2296936 0 0 1 -3.353529,1.09204 5.0015826,4.2296936 0 0 1 -2.637013,-0.63598 3.9906245,3.3195062 0 0 1 -2.257801,0.58256 3.9906245,3.3195062 0 0 1 -3.658018,-1.99432 4.1502494,4.2029235 0 0 1 -3.41848,-4.13621 4.1502494,4.2029235 0 0 1 0.470696,-1.94372 5.2372725,3.7934638 0 0 1 -0.02024,-0.007 z" />
      <path
         id="path894-5-3-2-9"
         style="fill:#8a5d3c;fill-opacity:1;stroke:none;stroke-width:0.332958;stroke-linecap:butt;stroke-linejoin:miter;stroke-miterlimit:4;stroke-dasharray:none;stroke-opacity:1"
         d="m 20.529401,282.79077 c 0.545127,1.83663 1.622462,2.69887 2.537845,3.03574 -0.345269,4.0491 -0.900415,8.0345 -1.148804,8.86764 h 3.465577 c -0.427696,-1.07494 -0.697732,-5.59626 -0.752443,-9.98922 0.384228,-0.16158 0.839108,-0.55257 1.220736,-1.31338 -0.607585,0.15333 -1.236637,0.23115 -1.868814,0.23119 -0.25129,9e-5 -0.502391,-0.0116 -0.752136,-0.0365 -0.01915,0.30247 -0.0378,0.60455 -0.06006,0.91142 -0.432345,-0.2377 -0.876287,-0.61868 -1.242385,-1.15527 -0.488807,-0.13671 -0.958326,-0.32177 -1.399517,-0.55163 z"
         sodipodi:nodetypes="cccccccccccc" />
      <path
         id="path894-5-3"
         style="fill:#865a3b;fill-opacity:1;stroke:none;stroke-width:0.3576;stroke-linecap:butt;stroke-linejoin:miter;stroke-miterlimit:4;stroke-dasharray:none;stroke-opacity:1"
         d="m 19.859058,277.05229 c -0.01383,0.0201 -0.151507,0.36142 -0.689182,1.20832 -0.04701,2.44085 -0.847888,3.81433 -1.552164,4.32093 -0.0068,-0.95707 -0.01776,-1.93605 -0.0158,-2.82444 -0.137572,-0.96305 0.442509,-3.00018 -1.346011,-1.14287 0.01929,1.48563 -0.06783,3.29835 -0.203895,5.16285 -1.050736,-0.57411 -2.166027,-1.92501 -2.235327,-4.22161 -1.684712,-1.69381 -0.864305,-1.36657 -0.993897,-0.4883 0.0092,4.03328 1.737208,5.628 3.117119,6.13266 -0.371977,4.33526 -0.970065,8.60229 -1.237668,9.49431 l 3.631747,-0.0881 c -0.460778,-1.15089 -0.649803,-5.90366 -0.708744,-10.60707 0.902617,-0.37721 2.172541,-1.89805 2.178898,-6.22673 -0.04136,-0.43913 0.06871,-0.74007 0.05492,-0.72002 z" />
      <path
         id="path857"
         style="fill:#3c9842;fill-opacity:1;stroke-width:1.3091;stroke-linecap:round;stroke-linejoin:round"
         d="m 17.801414,265.19043 a 5.216498,5.0445259 0 0 0 -3.38571,1.20696 3.8120564,3.8120564 0 0 0 -1.458361,-0.28968 3.8120564,3.8120564 0 0 0 -3.8120578,3.81207 3.8120564,3.8120564 0 0 0 0.2608258,1.38437 4.4712846,4.4999464 0 0 0 -2.0376937,3.77443 4.4712846,4.4999464 0 0 0 3.6828977,4.42902 4.2993121,3.5540975 0 0 0 3.941214,2.13487 4.2993121,3.5540975 0 0 0 2.432066,-0.62384 5.388471,4.5286082 0 0 0 2.841488,0.6809 5.388471,4.5286082 0 0 0 5.388291,-4.5287 5.388471,4.5286082 0 0 0 -0.19123,-1.19628 5.0158637,4.8152293 0 0 0 1.395037,-3.33179 5.0158637,4.8152293 0 0 0 -4.455968,-4.78513 5.216498,5.0445259 0 0 0 -4.600799,-2.6672 z" />
      <path
         id="path857-1"
         style="fill:#35873b;fill-opacity:1;stroke-width:1.3091;stroke-linecap:round;stroke-linejoin:round"
         d="m 9.1607244,271.47674 a 4.4712844,4.4999463 0 0 0 -1.7921754,3.60165 4.4712844,4.4999463 0 0 0 3.68291,4.42928 4.299312,3.5540975 0 0 0 3.940977,2.1345 4.299312,3.5540975 0 0 0 2.432449,-0.62372 5.388471,4.5286082 0 0 0 2.840994,0.68091 5.388471,4.5286082 0 0 0 4.919824,-2.68225 5.388471,4.5286082 0 0 1 -3.612936,1.16921 5.388471,4.5286082 0 0 1 -2.840994,-0.68091 4.299312,3.5540974 0 0 1 -2.432449,0.62372 4.299312,3.5540974 0 0 1 -3.940977,-2.13526 4.4712844,4.4999463 0 0 1 -3.6829107,-4.42852 4.4712844,4.4999463 0 0 1 0.5071069,-2.08108 5.6423923,4.0615499 0 0 1 -0.021803,-0.008 z" />
      <path
         id="path894-5-3-2"
         style="fill:#966541;fill-opacity:1;stroke:none;stroke-width:0.3576;stroke-linecap:butt;stroke-linejoin:miter;stroke-miterlimit:4;stroke-dasharray:none;stroke-opacity:1"
         d="m 13.205745,281.94975 c 0.587294,1.96645 1.747963,2.88962 2.734155,3.25029 -0.371977,4.33526 -0.970065,8.6023 -1.237668,9.49431 l 3.691938,-2.1e-4 c -0.46078,-1.1509 -0.709991,-5.99149 -0.768934,-10.6949 0.413949,-0.17299 0.904016,-0.59162 1.315164,-1.4062 -0.654584,0.16416 -1.332296,0.24748 -2.013375,0.24753 -0.270728,10e-5 -0.541252,-0.013 -0.810315,-0.0391 -0.02062,0.32384 -0.04073,0.64727 -0.06471,0.97584 -0.465787,-0.2545 -0.944071,-0.6624 -1.338487,-1.23692 -0.526617,-0.14637 -1.032457,-0.34452 -1.507773,-0.59062 z"
         sodipodi:nodetypes="ccccccccccc" />
    </g>
  </g>
</svg>
