<?xml version="1.0" encoding="UTF-8" standalone="no"?>
<svg
   xmlns:dc="http://purl.org/dc/elements/1.1/"
   xmlns:cc="http://creativecommons.org/ns#"
   xmlns:rdf="http://www.w3.org/1999/02/22-rdf-syntax-ns#"
   xmlns:svg="http://www.w3.org/2000/svg"
   xmlns="http://www.w3.org/2000/svg"
   xmlns:sodipodi="http://sodipodi.sourceforge.net/DTD/sodipodi-0.dtd"
   xmlns:inkscape="http://www.inkscape.org/namespaces/inkscape"
   width="128"
   height="128"
   viewBox="0 0 33.866666 33.866668"
   version="1.1"
   id="svg8"
   inkscape:version="1.0.1 (3bc2e813f5, 2020-09-07)"
   sodipodi:docname="drzewka2.svg">
  <defs
     id="defs2" />
  <sodipodi:namedview
     id="base"
     pagecolor="#ffffff"
     bordercolor="#666666"
     borderopacity="1.0"
     inkscape:pageopacity="0.0"
     inkscape:pageshadow="2"
     inkscape:zoom="2.8"
     inkscape:cx="-20.335774"
     inkscape:cy="68.636617"
     inkscape:document-units="mm"
     inkscape:current-layer="layer1"
     showgrid="false"
     units="px"
     showguides="true"
     inkscape:window-width="1920"
     inkscape:window-height="1057"
     inkscape:window-x="-8"
     inkscape:window-y="-8"
     inkscape:window-maximized="1"
     inkscape:document-rotation="0"
     inkscape:guide-bbox="true" />
  <metadata
     id="metadata5">
    <rdf:RDF>
      <cc:Work
         rdf:about="">
        <dc:format>image/svg+xml</dc:format>
        <dc:type
           rdf:resource="http://purl.org/dc/dcmitype/StillImage" />
        <dc:title></dc:title>
      </cc:Work>
    </rdf:RDF>
  </metadata>
  <g
     inkscape:label="Layer 1"
     inkscape:groupmode="layer"
     id="layer1"
     transform="translate(0,-263.13332)">
    <path
       id="path894-5-3-6-4"
       style="fill:#7a5136;fill-opacity:1;stroke:none;stroke-width:1.29913;stroke-linecap:butt;stroke-linejoin:miter;stroke-miterlimit:4;stroke-dasharray:none;stroke-opacity:1"
       d="M 20.962891 63.291016 C 20.884352 63.217636 21.510058 64.315726 21.275391 65.916016 C 21.30831 80.614258 27.56693 86.426507 32.564453 88.265625 C 31.217292 104.06431 29.051188 119.61454 28.082031 122.86523 L 41.234375 122.54297 C 39.565608 118.3489 38.881433 101.02898 38.667969 83.888672 C 40.610941 83.071636 43.017515 80.759843 44.660156 75.724609 C 44.32402 74.913995 44.013082 74.050928 43.736328 73.125 L 43.734375 73.123047 C 43.531814 72.444947 43.351152 71.72676 43.185547 70.984375 C 42.076177 75.010242 40.288229 77.530066 38.640625 78.722656 C 38.61568 75.23487 38.574964 71.667231 38.582031 68.429688 C 38.544678 68.166589 38.52652 67.877592 38.513672 67.578125 A 16.774924 13.867268 0 0 1 38.476562 67.546875 A 16.774923 13.867268 0 0 1 38.232422 67.328125 A 16.774924 13.867268 0 0 1 37.996094 67.105469 A 16.774923 13.867268 0 0 0 37.994141 67.105469 A 16.774924 13.867268 0 0 1 36.697266 65.683594 A 16.774923 13.867268 0 0 0 36.695312 65.681641 A 16.774924 13.867268 0 0 1 36.652344 65.626953 A 16.774923 13.867268 0 0 1 36.501953 65.431641 A 16.774924 13.867268 0 0 1 36.314453 65.177734 A 16.774923 13.867268 0 0 1 36.132812 64.919922 A 16.774924 13.867268 0 0 1 35.628906 64.132812 A 16.774923 13.867268 0 0 1 35.328125 63.591797 A 17.44592 17.557752 0 0 1 34.546875 63.433594 C 34.279388 63.69071 34.013144 63.947796 33.708984 64.265625 C 33.778857 69.679647 33.4635 76.285432 32.970703 83.080078 C 29.165335 80.987921 25.125983 76.064623 24.875 67.695312 C 21.824303 64.609026 21.041429 63.364395 20.962891 63.291016 z "
       transform="matrix(0.26458333,0,0,0.26458333,0,263.13332)" />
    <path
       id="path857-11-9"
       style="fill:#378c3d;fill-opacity:1;stroke-width:4.75582;stroke-linecap:round;stroke-linejoin:round"
       d="M 30.835938 17.296875 A 18.892199 18.38341 0 0 0 27.042969 19.744141 A 13.805839 13.892008 0 0 0 21.761719 18.689453 A 13.805839 13.892008 0 0 0 7.9570312 32.582031 A 13.805839 13.892008 0 0 0 8.9003906 37.626953 A 16.193316 16.398838 0 0 0 1.5214844 51.380859 A 16.193316 16.398838 0 0 0 14.859375 67.521484 A 15.570496 12.951947 0 0 0 29.132812 75.300781 A 15.570496 12.951947 0 0 0 37.941406 73.027344 A 19.515021 16.503288 0 0 0 44.455078 75.197266 C 44.199029 74.538532 43.954811 73.855972 43.736328 73.125 L 43.734375 73.123047 C 43.477896 72.264452 43.248741 71.358311 43.052734 70.394531 A 16.774923 13.867268 0 0 1 43.048828 70.394531 A 16.774924 13.867268 0 0 1 42.732422 70.255859 A 16.774923 13.867268 0 0 0 42.730469 70.255859 A 16.774924 13.867268 0 0 1 42.417969 70.111328 A 16.774923 13.867268 0 0 0 42.416016 70.111328 A 16.774924 13.867268 0 0 1 41.800781 69.806641 A 16.774923 13.867268 0 0 0 41.798828 69.806641 A 16.774924 13.867268 0 0 1 41.498047 69.646484 A 16.774923 13.867268 0 0 0 41.496094 69.646484 A 16.774924 13.867268 0 0 1 41.199219 69.480469 A 16.774923 13.867268 0 0 0 41.197266 69.480469 A 16.774924 13.867268 0 0 1 40.904297 69.308594 A 16.774923 13.867268 0 0 1 40.613281 69.132812 A 16.774924 13.867268 0 0 1 40.330078 68.951172 A 16.774923 13.867268 0 0 1 40.048828 68.765625 A 16.774924 13.867268 0 0 1 39.775391 68.574219 A 16.774923 13.867268 0 0 0 39.773438 68.574219 A 16.774924 13.867268 0 0 1 39.505859 68.378906 A 16.774923 13.867268 0 0 0 39.503906 68.378906 A 16.774924 13.867268 0 0 1 39.240234 68.177734 A 16.774923 13.867268 0 0 0 39.238281 68.177734 A 16.774924 13.867268 0 0 1 38.726562 67.761719 A 16.774923 13.867268 0 0 0 38.724609 67.761719 A 16.774924 13.867268 0 0 1 38.476562 67.546875 A 16.774923 13.867268 0 0 1 38.232422 67.328125 A 16.774924 13.867268 0 0 1 37.996094 67.105469 A 16.774923 13.867268 0 0 0 37.994141 67.105469 A 16.774924 13.867268 0 0 1 36.697266 65.683594 A 16.774923 13.867268 0 0 0 36.695312 65.681641 A 16.774924 13.867268 0 0 1 36.652344 65.626953 A 16.774923 13.867268 0 0 1 36.501953 65.431641 A 16.774924 13.867268 0 0 1 36.314453 65.177734 A 16.774923 13.867268 0 0 1 36.132812 64.919922 A 16.774924 13.867268 0 0 1 35.628906 64.132812 A 16.774923 13.867268 0 0 1 35.328125 63.591797 A 17.44592 17.557752 0 0 1 34.529297 63.429688 A 17.445921 17.557752 0 0 0 34.527344 63.429688 A 17.44592 17.557752 0 0 1 30.578125 62.001953 A 17.445921 17.557752 0 0 0 30.576172 62.001953 A 17.44592 17.557752 0 0 1 28.46875 60.742188 A 17.445921 17.557752 0 0 1 27.900391 60.328125 A 17.44592 17.557752 0 0 1 24.876953 57.398438 A 17.445921 17.557752 0 0 0 24.876953 57.396484 A 17.44592 17.557752 0 0 1 23.839844 55.976562 A 17.445921 17.557752 0 0 0 23.839844 55.974609 A 17.44592 17.557752 0 0 1 23.648438 55.681641 A 17.445921 17.557752 0 0 0 23.648438 55.679688 A 17.44592 17.557752 0 0 1 22.949219 54.458984 A 17.445921 17.557752 0 0 1 22.949219 54.455078 A 17.44592 17.557752 0 0 1 22.789062 54.142578 A 17.445921 17.557752 0 0 0 22.789062 54.140625 A 17.44592 17.557752 0 0 1 22.349609 53.181641 A 17.445921 17.557752 0 0 0 22.349609 53.179688 A 17.44592 17.557752 0 0 1 22.214844 52.855469 A 17.445921 17.557752 0 0 0 22.214844 52.853516 A 17.44592 17.557752 0 0 1 21.966797 52.195312 A 17.445921 17.557752 0 0 0 21.966797 52.193359 A 17.44592 17.557752 0 0 1 21.853516 51.861328 A 17.445921 17.557752 0 0 1 21.644531 51.185547 A 17.44592 17.557752 0 0 1 21.550781 50.847656 A 17.445921 17.557752 0 0 0 21.550781 50.845703 A 17.44592 17.557752 0 0 1 21.462891 50.505859 A 17.445921 17.557752 0 0 0 21.462891 50.503906 A 17.44592 17.557752 0 0 1 21.382812 50.162109 A 17.445921 17.557752 0 0 0 21.382812 50.160156 A 17.44592 17.557752 0 0 1 21.242188 49.470703 A 17.445921 17.557752 0 0 0 21.242188 49.46875 A 17.44592 17.557752 0 0 1 21.183594 49.123047 A 17.445921 17.557752 0 0 0 21.183594 49.121094 A 17.44592 17.557752 0 0 1 21.083984 48.423828 A 17.445921 17.557752 0 0 1 21.013672 47.720703 A 17.44592 17.557752 0 0 1 20.972656 47.017578 A 17.445921 17.557752 0 0 0 20.972656 47.015625 A 17.44592 17.557752 0 0 1 20.960938 46.664062 A 17.445921 17.557752 0 0 1 20.957031 46.310547 A 17.445921 17.557752 0 0 1 20.972656 45.599609 A 17.44592 17.557752 0 0 1 20.978516 45.490234 A 17.445921 17.557752 0 0 1 20.988281 45.302734 A 17.44592 17.557752 0 0 1 20.998047 45.132812 A 17.445921 17.557752 0 0 1 21.011719 44.957031 A 17.44592 17.557752 0 0 1 21.023438 44.800781 A 17.445921 17.557752 0 0 1 21.080078 44.248047 A 17.44592 17.557752 0 0 1 21.101562 44.0625 A 17.445921 17.557752 0 0 1 21.185547 43.492188 A 17.44592 17.557752 0 0 1 21.201172 43.396484 A 17.445921 17.557752 0 0 1 21.236328 43.189453 A 17.44592 17.557752 0 0 1 21.261719 43.052734 A 17.445921 17.557752 0 0 1 21.371094 42.515625 A 17.44592 17.557752 0 0 1 21.421875 42.296875 A 17.445921 17.557752 0 0 1 21.451172 42.171875 A 17.44592 17.557752 0 0 1 21.480469 42.048828 A 17.445921 17.557752 0 0 1 21.558594 41.748047 A 17.44592 17.557752 0 0 1 21.572266 41.691406 A 17.445921 17.557752 0 0 1 21.644531 41.4375 A 17.44592 17.557752 0 0 1 21.673828 41.335938 A 17.445921 17.557752 0 0 1 21.740234 41.115234 A 17.44592 17.557752 0 0 1 21.771484 41.013672 A 17.445921 17.557752 0 0 1 21.873047 40.701172 A 17.44592 17.557752 0 0 1 21.910156 40.589844 A 17.445921 17.557752 0 0 1 21.96875 40.425781 A 17.44592 17.557752 0 0 1 21.996094 40.34375 A 17.445921 17.557752 0 0 1 22.111328 40.037109 A 17.44592 17.557752 0 0 1 22.152344 39.927734 A 17.445921 17.557752 0 0 1 22.195312 39.818359 A 17.44592 17.557752 0 0 1 22.265625 39.644531 A 17.445921 17.557752 0 0 1 22.492188 39.113281 A 17.44592 17.557752 0 0 1 22.535156 39.017578 A 17.445921 17.557752 0 0 1 22.615234 38.847656 A 17.44592 17.557752 0 0 1 22.695312 38.677734 A 17.445921 17.557752 0 0 1 22.767578 38.529297 A 17.44592 17.557752 0 0 1 22.839844 38.380859 A 17.445921 17.557752 0 0 1 22.925781 38.214844 A 17.44592 17.557752 0 0 1 23.001953 38.064453 A 17.445921 17.557752 0 0 1 23.107422 37.873047 A 17.44592 17.557752 0 0 1 23.1875 37.726562 A 17.445921 17.557752 0 0 1 23.228516 37.652344 A 17.44592 17.557752 0 0 1 23.341797 37.453125 A 17.445921 17.557752 0 0 1 23.648438 36.945312 A 17.44592 17.557752 0 0 1 23.714844 36.841797 A 17.445921 17.557752 0 0 1 23.833984 36.658203 A 17.44592 17.557752 0 0 1 23.888672 36.574219 A 17.445921 17.557752 0 0 1 26.054688 33.910156 A 17.44592 17.557752 0 0 1 26.123047 33.841797 A 17.445921 17.557752 0 0 1 26.261719 33.707031 A 17.44592 17.557752 0 0 1 26.388672 33.582031 A 17.445921 17.557752 0 0 1 27.390625 32.697266 A 17.44592 17.557752 0 0 1 27.402344 32.685547 A 17.445921 17.557752 0 0 1 28.908203 31.582031 A 14.873764 14.873764 0 0 1 27.890625 26.181641 A 14.873764 14.873764 0 0 1 30.835938 17.296875 z "
       transform="matrix(0.26458333,0,0,0.26458333,0,263.13332)" />
    <path
       id="path857-1-9-1"
       style="fill:#307a36;fill-opacity:1;stroke-width:4.75582;stroke-linecap:round;stroke-linejoin:round"
       d="M 8.0117188 38.255859 A 16.193315 16.398838 0 0 0 1.5214844 51.380859 A 16.193315 16.398838 0 0 0 14.859375 67.521484 A 15.570496 12.951947 0 0 0 29.132812 75.300781 A 15.570496 12.951947 0 0 0 37.941406 73.027344 A 19.515021 16.503288 0 0 0 44.455078 75.195312 C 44.199279 74.537084 43.954624 73.855345 43.736328 73.125 L 43.734375 73.123047 C 43.4779 72.264452 43.248741 71.358311 43.052734 70.394531 A 16.774923 13.867268 0 0 1 43.048828 70.394531 A 16.774924 13.867268 0 0 1 42.732422 70.255859 A 16.774923 13.867268 0 0 0 42.730469 70.255859 A 16.774924 13.867268 0 0 1 42.417969 70.111328 A 16.774923 13.867268 0 0 0 42.416016 70.111328 A 16.774924 13.867268 0 0 1 41.800781 69.806641 A 16.774923 13.867268 0 0 0 41.798828 69.806641 A 16.774924 13.867268 0 0 1 41.498047 69.646484 A 16.774923 13.867268 0 0 0 41.496094 69.646484 A 16.774924 13.867268 0 0 1 41.199219 69.480469 A 16.774923 13.867268 0 0 0 41.197266 69.480469 A 16.774924 13.867268 0 0 1 40.904297 69.308594 A 16.774923 13.867268 0 0 1 40.613281 69.132812 A 16.774924 13.867268 0 0 1 40.330078 68.951172 A 16.774923 13.867268 0 0 1 40.048828 68.765625 A 16.774924 13.867268 0 0 1 40.005859 68.734375 A 15.570496 12.951947 0 0 1 33.865234 69.787109 A 15.570496 12.951947 0 0 1 19.591797 62.005859 A 16.193315 16.398838 0 0 1 6.2539062 45.867188 A 16.193315 16.398838 0 0 1 8.0917969 38.283203 A 20.434628 14.80122 0 0 1 8.0117188 38.255859 z "
       transform="matrix(0.26458333,0,0,0.26458333,0,263.13332)" />
    <path
       id="path894-5-3-2-9-2"
       style="fill:#8a5d3c;fill-opacity:1;stroke:none;stroke-width:1.29913;stroke-linecap:butt;stroke-linejoin:miter;stroke-miterlimit:4;stroke-dasharray:none;stroke-opacity:1"
       d="M 22.662109 76.421875 C 24.78907 83.587973 28.992838 86.951219 32.564453 88.265625 C 31.217292 104.06428 29.051188 119.61454 28.082031 122.86523 L 41.376953 122.89258 C 39.708182 118.6984 38.881436 101.03093 38.667969 83.890625 C 40.167141 83.260162 41.940667 81.734104 43.429688 78.765625 C 41.059036 79.363849 38.605278 79.66778 36.138672 79.667969 C 35.158199 79.668309 34.177571 79.622524 33.203125 79.525391 C 33.128423 80.705624 33.05756 81.882762 32.970703 83.080078 C 31.283792 82.15262 29.551477 80.66785 28.123047 78.574219 C 26.215835 78.040814 24.383531 77.318681 22.662109 76.421875 z "
       transform="matrix(0.26458333,0,0,0.26458333,0,263.13332)" />
    <path
       id="path894-5-3-6"
       style="fill:#7a5136;fill-opacity:1;stroke:none;stroke-width:0.343728;stroke-linecap:butt;stroke-linejoin:miter;stroke-miterlimit:4;stroke-dasharray:none;stroke-opacity:1"
       d="m 25.707991,280.73586 a 6.1267014,5.1490358 0 0 1 -0.716235,0.66766 c -0.268434,1.37258 -0.822035,2.20169 -1.324984,2.56574 -0.0043,-0.60044 -0.0067,-1.18354 -0.0098,-1.77199 a 6.1267014,5.1490358 0 0 1 -0.342615,0.13953 6.1267014,5.1490358 0 0 1 -0.214974,0.0765 6.1267014,5.1490358 0 0 1 -0.664042,0.1881 6.1267014,5.1490358 0 0 1 -0.113688,0.0248 6.1267014,5.1490358 0 0 1 -0.0083,0.002 c -0.03486,0.80203 -0.08491,1.64107 -0.146761,2.49391 -0.711316,-0.39108 -1.451676,-1.1582 -1.849499,-2.35438 a 6.1267014,5.1490358 0 0 1 -0.0956,-0.007 6.1267014,5.1490358 0 0 0 -5.16e-4,0 6.1267014,5.1490358 0 0 1 -0.231511,-0.0233 6.1267014,5.1490358 0 0 0 -5.17e-4,0 6.1267014,5.1490358 0 0 1 -0.115238,-0.0139 6.1267014,5.1490358 0 0 0 -5.17e-4,0 6.1267014,5.1490358 0 0 1 -0.128674,-0.0181 c -0.08531,0.27714 -0.179884,0.51968 -0.278019,0.74776 0.571137,1.83264 1.663066,2.69856 2.592606,3.04064 -0.356436,4.18007 -0.929552,8.29441 -1.185974,9.15448 l 3.479891,-0.0847 c -0.441528,-1.10969 -0.622549,-5.69276 -0.679028,-10.2278 0.759745,-0.31949 1.790299,-1.49093 2.033984,-4.59972 z" />
    <path
       id="path857-11"
       style="fill:#378c3d;fill-opacity:1;stroke-width:1.25831;stroke-linecap:round;stroke-linejoin:round"
       d="m 24.129793,267.20852 a 5.7030461,5.4749242 0 0 1 4.18269,5.27668 5.7030461,5.4749242 0 0 1 -1.58595,3.7884 6.1267014,5.1490358 0 0 1 0.217559,1.36013 6.1267014,5.1490358 0 0 1 -0.701249,2.3921 6.1267014,5.1490358 0 0 1 -0.0553,0.0858 6.1267014,5.1490358 0 0 1 -1.219563,1.31 6.1267014,5.1490358 0 0 0 -5.17e-4,0 6.1267014,5.1490358 0 0 1 -0.355534,0.25476 6.1267014,5.1490358 0 0 0 -5.17e-4,0 6.1267014,5.1490358 0 0 1 -0.67386,0.38861 6.1267014,5.1490358 0 0 0 -5.17e-4,0 6.1267014,5.1490358 0 0 1 -0.622701,0.27079 6.1267014,5.1490358 0 0 1 -0.214974,0.0765 6.1267014,5.1490358 0 0 1 -0.664042,0.1881 6.1267014,5.1490358 0 0 1 -0.113688,0.0248 6.1267014,5.1490358 0 0 1 -0.45682,0.0822 6.1267014,5.1490358 0 0 0 -5.17e-4,0 6.1267014,5.1490358 0 0 1 -0.230477,0.0294 6.1267014,5.1490358 0 0 0 -5.16e-4,0 6.1267014,5.1490358 0 0 1 -0.232028,0.0227 6.1267014,5.1490358 0 0 0 -5.16e-4,0 6.1267014,5.1490358 0 0 1 -0.232544,0.015 6.1267014,5.1490358 0 0 1 -0.350883,0.009 6.1267014,5.1490358 0 0 1 -0.129191,-5.1e-4 6.1267014,5.1490358 0 0 0 -5.17e-4,0 6.1267014,5.1490358 0 0 1 -0.233061,-0.008 6.1267014,5.1490358 0 0 1 -0.233061,-0.0155 6.1267014,5.1490358 0 0 0 -5.16e-4,0 6.1267014,5.1490358 0 0 1 -0.231511,-0.0227 6.1267014,5.1490358 0 0 0 -5.17e-4,0 6.1267014,5.1490358 0 0 1 -0.115238,-0.014 6.1267014,5.1490358 0 0 0 -5.17e-4,0 6.1267014,5.1490358 0 0 1 -0.128674,-0.0186 c -0.01526,0.0496 -0.03286,0.0906 -0.04858,0.13849 a 4.1196937,3.4268693 0 0 0 1.455208,0.2217 4.1196937,3.4268693 0 0 0 2.330608,-0.60152 5.1633492,4.3664949 0 0 0 2.722832,0.65629 5.1633492,4.3664949 0 0 0 5.162992,-4.36666 5.1633492,4.3664949 0 0 0 -0.182936,-1.15341 4.8063089,4.6428554 0 0 0 1.336352,-3.21221 4.8063089,4.6428554 0 0 0 -4.269507,-4.61419 4.9985609,4.8639438 0 0 0 -4.121711,-2.56367 z" />
    <path
       id="path857-1-9"
       style="fill:#307a36;fill-opacity:1;stroke-width:1.25831;stroke-linecap:round;stroke-linejoin:round"
       d="m 30.918525,280.53226 a 5.1633492,4.3664949 0 0 1 -3.461803,1.12758 5.1633492,4.3664949 0 0 1 -2.246375,-0.43512 6.1267014,5.1490358 0 0 1 -0.242362,0.19844 6.1267014,5.1490358 0 0 0 -5.17e-4,0 6.1267014,5.1490358 0 0 1 -0.355534,0.25476 6.1267014,5.1490358 0 0 0 -5.17e-4,0 6.1267014,5.1490358 0 0 1 -0.67386,0.38913 6.1267014,5.1490358 0 0 0 -5.17e-4,0 6.1267014,5.1490358 0 0 1 -0.622701,0.27027 6.1267014,5.1490358 0 0 1 -0.214974,0.077 6.1267014,5.1490358 0 0 1 -0.664042,0.18759 6.1267014,5.1490358 0 0 1 -0.113688,0.0248 6.1267014,5.1490358 0 0 1 -0.45682,0.0822 6.1267014,5.1490358 0 0 0 -5.17e-4,0 6.1267014,5.1490358 0 0 1 -0.230477,0.0294 6.1267014,5.1490358 0 0 0 -5.16e-4,0 6.1267014,5.1490358 0 0 1 -0.232028,0.0233 6.1267014,5.1490358 0 0 0 -5.16e-4,0 6.1267014,5.1490358 0 0 1 -0.232544,0.0145 6.1267014,5.1490358 0 0 1 -0.350883,0.009 6.1267014,5.1490358 0 0 1 -0.129191,-10e-4 6.1267014,5.1490358 0 0 0 -5.17e-4,0 6.1267014,5.1490358 0 0 1 -0.233061,-0.008 6.1267014,5.1490358 0 0 1 -0.233061,-0.015 6.1267014,5.1490358 0 0 0 -5.16e-4,0 6.1267014,5.1490358 0 0 1 -0.231511,-0.0227 6.1267014,5.1490358 0 0 0 -5.17e-4,0 6.1267014,5.1490358 0 0 1 -0.115238,-0.0145 6.1267014,5.1490358 0 0 0 -5.17e-4,0 6.1267014,5.1490358 0 0 1 -0.128674,-0.0181 c -0.01505,0.0489 -0.03256,0.0891 -0.04806,0.13642 a 4.1196937,3.4268693 0 0 0 1.454691,0.22118 4.1196937,3.4268693 0 0 0 2.331124,-0.60151 5.1633492,4.3664949 0 0 0 2.722316,0.6568 5.1633492,4.3664949 0 0 0 4.713922,-2.5864 z" />
    <path
       id="path894-5-3-2-9"
       style="fill:#8a5d3c;fill-opacity:1;stroke:none;stroke-width:0.343728;stroke-linecap:butt;stroke-linejoin:miter;stroke-miterlimit:4;stroke-dasharray:none;stroke-opacity:1"
       d="m 19.495967,283.38738 c -0.0091,0.0217 -0.01876,0.0407 -0.02791,0.062 0.570995,1.83317 1.661427,2.70267 2.591056,3.04478 -0.356436,4.18006 -0.929551,8.29387 -1.185974,9.15396 h 3.57756 c -0.441529,-1.10971 -0.720216,-5.77699 -0.776697,-10.31203 0.396656,-0.16681 0.866417,-0.57057 1.260388,-1.35599 -0.627236,0.15829 -1.276975,0.23869 -1.929598,0.23874 -0.259418,9e-5 -0.518357,-0.012 -0.77618,-0.0377 -0.01977,0.31225 -0.03903,0.62424 -0.06201,0.94103 -0.446329,-0.24538 -0.90467,-0.63875 -1.282609,-1.19269 -0.48398,-0.13536 -0.948914,-0.31814 -1.388029,-0.54209 z" />
    <path
       id="path894-5-3"
       style="fill:#865a3b;fill-opacity:1;stroke:none;stroke-width:0.369166;stroke-linecap:butt;stroke-linejoin:miter;stroke-miterlimit:4;stroke-dasharray:none;stroke-opacity:1"
       d="m 19.805493,277.43593 c -0.01428,0.0208 -0.156407,0.37311 -0.711472,1.2474 -0.04853,2.51979 -0.875311,3.9377 -1.602366,4.46068 -0.007,-0.98802 -0.01833,-1.99867 -0.01631,-2.91579 -0.142021,-0.9942 0.456821,-3.09722 -1.389545,-1.17983 0.01991,1.53367 -0.07002,3.40502 -0.210489,5.32983 -1.084721,-0.59268 -2.236083,-1.98727 -2.307625,-4.35815 -1.739201,-1.7486 -0.892259,-1.41077 -1.026043,-0.5041 0.0095,4.16373 1.793395,5.81003 3.217937,6.33101 -0.384008,4.47548 -1.00144,8.88052 -1.277698,9.80139 l 3.749209,-0.091 c -0.475681,-1.18811 -0.67082,-6.0946 -0.731667,-10.95014 0.93181,-0.38941 2.242807,-1.95943 2.24937,-6.42812 -0.0427,-0.45333 0.07093,-0.764 0.0567,-0.74331 z" />
    <path
       id="path857"
       style="fill:#3c9842;fill-opacity:1;stroke-width:1.35144;stroke-linecap:round;stroke-linejoin:round"
       d="m 17.681299,265.19042 a 5.3852157,5.2076815 0 0 0 -3.495215,1.24599 3.9353501,3.9353501 0 0 0 -1.505528,-0.29904 3.9353501,3.9353501 0 0 0 -3.935352,3.93536 3.9353501,3.9353501 0 0 0 0.2692617,1.42914 4.6158998,4.6454886 0 0 0 -2.103599,3.89651 4.6158998,4.6454886 0 0 0 3.8020143,4.57227 4.4383652,3.669048 0 0 0 4.068685,2.20392 4.4383652,3.669048 0 0 0 2.510726,-0.64402 5.5627509,4.6750774 0 0 0 2.933391,0.70292 5.5627509,4.6750774 0 0 0 5.562565,-4.67517 5.5627509,4.6750774 0 0 0 -0.197415,-1.23497 5.1780923,4.9709687 0 0 0 1.440157,-3.43955 5.1780923,4.9709687 0 0 0 -4.600088,-4.9399 5.3852157,5.2076815 0 0 0 -4.749603,-2.75346 z" />
    <path
       id="path857-1"
       style="fill:#35873b;fill-opacity:1;stroke-width:1.35144;stroke-linecap:round;stroke-linejoin:round"
       d="m 8.7611425,271.68005 a 4.6158996,4.6454885 0 0 0 -1.8501399,3.71814 4.6158996,4.6454885 0 0 0 3.8020264,4.57253 4.4383651,3.669048 0 0 0 4.068441,2.20354 4.4383651,3.669048 0 0 0 2.511122,-0.64389 5.5627509,4.6750774 0 0 0 2.93288,0.70293 5.5627509,4.6750774 0 0 0 5.078947,-2.769 5.5627509,4.6750774 0 0 1 -3.72979,1.20702 5.5627509,4.6750774 0 0 1 -2.93288,-0.70293 4.4383651,3.6690479 0 0 1 -2.511122,0.64389 4.4383651,3.6690479 0 0 1 -4.068441,-2.20432 4.6158996,4.6454885 0 0 1 -3.8020273,-4.57175 4.6158996,4.6454885 0 0 1 0.5235083,-2.14839 5.8248848,4.192913 0 0 1 -0.022508,-0.008 z" />
    <path
       id="path894-5-3-2"
       style="fill:#966541;fill-opacity:1;stroke:none;stroke-width:0.369166;stroke-linecap:butt;stroke-linejoin:miter;stroke-miterlimit:4;stroke-dasharray:none;stroke-opacity:1"
       d="m 12.936992,282.49179 c 0.606289,2.03005 1.804497,2.98308 2.822586,3.35541 -0.384008,4.47548 -1.00144,8.88053 -1.277698,9.80139 l 3.811346,-2.2e-4 c -0.475683,-1.18812 -0.732954,-6.18527 -0.793803,-11.04081 0.427337,-0.17858 0.933254,-0.61075 1.3577,-1.45168 -0.675755,0.16947 -1.375386,0.25549 -2.078494,0.25554 -0.279484,10e-5 -0.558757,-0.0134 -0.836523,-0.0404 -0.02129,0.33432 -0.04205,0.66821 -0.0668,1.00741 -0.480852,-0.26274 -0.974605,-0.68383 -1.381777,-1.27693 -0.54365,-0.1511 -1.06585,-0.35566 -1.55654,-0.60972 z"
       sodipodi:nodetypes="ccccccccccc" />
  </g>
</svg>
