<?xml version="1.0" encoding="UTF-8" standalone="no"?>
<!-- Created with Inkscape (http://www.inkscape.org/) -->

<svg
   xmlns:dc="http://purl.org/dc/elements/1.1/"
   xmlns:cc="http://creativecommons.org/ns#"
   xmlns:rdf="http://www.w3.org/1999/02/22-rdf-syntax-ns#"
   xmlns:svg="http://www.w3.org/2000/svg"
   xmlns="http://www.w3.org/2000/svg"
   xmlns:sodipodi="http://sodipodi.sourceforge.net/DTD/sodipodi-0.dtd"
   xmlns:inkscape="http://www.inkscape.org/namespaces/inkscape"
   width="128"
   height="128"
   viewBox="0 0 33.866666 33.866668"
   version="1.1"
   id="svg8"
   inkscape:version="0.92.4 (5da689c313, 2019-01-14)"
   sodipodi:docname="Eko.svg">
  <defs
     id="defs2" />
  <sodipodi:namedview
     id="base"
     pagecolor="#ffffff"
     bordercolor="#666666"
     borderopacity="1.0"
     inkscape:pageopacity="0.0"
     inkscape:pageshadow="2"
     inkscape:zoom="5.6"
     inkscape:cx="62.485767"
     inkscape:cy="64.864618"
     inkscape:document-units="mm"
     inkscape:current-layer="layer1"
     showgrid="false"
     units="px"
     showguides="false"
     inkscape:window-width="1920"
     inkscape:window-height="1051"
     inkscape:window-x="-9"
     inkscape:window-y="-9"
     inkscape:window-maximized="1" />
  <metadata
     id="metadata5">
    <rdf:RDF>
      <cc:Work
         rdf:about="">
        <dc:format>image/svg+xml</dc:format>
        <dc:type
           rdf:resource="http://purl.org/dc/dcmitype/StillImage" />
        <dc:title></dc:title>
      </cc:Work>
    </rdf:RDF>
  </metadata>
  <g
     inkscape:label="Layer 1"
     inkscape:groupmode="layer"
     id="layer1"
     transform="translate(0,-263.13332)">
    <path
       style="fill:#286134;fill-opacity:1;stroke:none;stroke-width:0.26458332px;stroke-linecap:butt;stroke-linejoin:miter;stroke-opacity:1"
       d="m 5.385165,270.87012 7.182868,4.34313 4.744035,-8.11831 c 0,0 -5.722021,-6.97995 -9.4212512,-0.56795 -2.5056518,4.34313 -2.5056518,4.34313 -2.5056518,4.34313 z"
       id="path826"
       inkscape:connector-curvature="0"
       sodipodi:nodetypes="cccsc" />
    <path
       style="fill:#3d9651;fill-opacity:1;stroke:none;stroke-width:0.26458332px;stroke-linecap:butt;stroke-linejoin:miter;stroke-opacity:1"
       d="m 14.839825,263.18612 9.68852,0.53454 c 0,0 0.551243,0.10023 1.971113,1.9377 1.419868,1.83748 1.637025,2.27179 1.637025,2.27179 l 2.639288,-1.26953 -4.660514,6.83208 -8.335468,-0.15034 3.340869,-1.68714 c 0,0 -2.488947,-6.71514 -6.280833,-8.4691 z"
       id="path828"
       inkscape:connector-curvature="0" />
    <path
       style="fill:#286134;fill-opacity:1;stroke:none;stroke-width:0.26458332px;stroke-linecap:butt;stroke-linejoin:miter;stroke-opacity:1"
       d="m 30.365548,272.90633 -7.352697,4.04898 4.658645,8.16761 c 0,0 8.905828,-1.46544 5.202488,-7.87507 -2.50843,-4.34153 -2.50843,-4.34153 -2.50843,-4.34153 z"
       id="path826-8"
       inkscape:connector-curvature="0"
       sodipodi:nodetypes="cccsc" />
    <path
       style="fill:#3d9651;fill-opacity:1;stroke:none;stroke-width:0.26458332px;stroke-linecap:butt;stroke-linejoin:miter;stroke-opacity:1"
       d="m 32.292757,284.9363 -5.307183,8.12324 c 0,0 -0.362428,0.42727 -2.663659,0.73818 -2.301237,0.3109 -2.785937,0.28181 -2.785937,0.28181 l -0.220198,2.92046 -3.586497,-7.45216 4.29793,-7.14356 -0.209329,3.73684 c 0,0 7.059956,1.20208 10.474873,-1.20481 z"
       id="path828-5"
       inkscape:connector-curvature="0" />
    <path
       style="fill:#286134;fill-opacity:1;stroke:none;stroke-width:0.26458332px;stroke-linecap:butt;stroke-linejoin:miter;stroke-opacity:1"
       d="m 16.340837,293.78539 0.169829,-8.39211 -9.4026812,-0.0493 c 0,0 -3.1838044,8.4454 4.2187662,8.44303 5.014091,-0.002 5.014091,-0.002 5.014091,-0.002 z"
       id="path826-8-7"
       inkscape:connector-curvature="0"
       sodipodi:nodetypes="cccsc" />
    <path
       style="fill:#3d9651;fill-opacity:1;stroke:none;stroke-width:0.26458332px;stroke-linecap:butt;stroke-linejoin:miter;stroke-opacity:1"
       d="m 4.9589729,289.43942 -4.38133987,-8.65777 c 0,0 -0.1888148,-0.52752 0.69254487,-2.6759 0.8813714,-2.14838 1.1489149,-2.55359 1.1489149,-2.55359 L 0,273.90123 l 8.2470067,0.62008 4.0375403,7.2939 -3.1315332,-2.0497 c 0,0 -4.5710103,5.51306 -4.1940409,9.67391 z"
       id="path828-5-8"
       inkscape:connector-curvature="0" />
  </g>
</svg>
