<?xml version="1.0" encoding="UTF-8" standalone="no"?>
<svg
   xmlns:dc="http://purl.org/dc/elements/1.1/"
   xmlns:cc="http://creativecommons.org/ns#"
   xmlns:rdf="http://www.w3.org/1999/02/22-rdf-syntax-ns#"
   xmlns:svg="http://www.w3.org/2000/svg"
   xmlns="http://www.w3.org/2000/svg"
   xmlns:sodipodi="http://sodipodi.sourceforge.net/DTD/sodipodi-0.dtd"
   xmlns:inkscape="http://www.inkscape.org/namespaces/inkscape"
   width="512"
   height="512"
   viewBox="0 0 135.46666 135.46666"
   version="1.1"
   id="svg8"
   inkscape:version="1.0.1 (3bc2e813f5, 2020-09-07)"
   sodipodi:docname="ziemia.svg">
  <defs
     id="defs2" />
  <sodipodi:namedview
     id="base"
     pagecolor="#ffffff"
     bordercolor="#666666"
     borderopacity="1.0"
     inkscape:pageopacity="0.0"
     inkscape:pageshadow="2"
     inkscape:zoom="0.98994949"
     inkscape:cx="307.68477"
     inkscape:cy="290.55861"
     inkscape:document-units="mm"
     inkscape:current-layer="layer1"
     inkscape:document-rotation="0"
     showgrid="false"
     units="px"
     inkscape:window-width="1920"
     inkscape:window-height="1057"
     inkscape:window-x="-8"
     inkscape:window-y="-8"
     inkscape:window-maximized="1" />
  <metadata
     id="metadata5">
    <rdf:RDF>
      <cc:Work
         rdf:about="">
        <dc:format>image/svg+xml</dc:format>
        <dc:type
           rdf:resource="http://purl.org/dc/dcmitype/StillImage" />
        <dc:title></dc:title>
      </cc:Work>
    </rdf:RDF>
  </metadata>
  <g
     inkscape:label="Layer 1"
     inkscape:groupmode="layer"
     id="layer1">
    <g
       id="g1461"
       transform="matrix(1.0421053,0,0,1.0421053,-5.6089707,-5.6267271)">
      <circle
         style="fill:#4adcf1;fill-opacity:1;stroke-width:0.252254;stroke-linecap:round;stroke-linejoin:round"
         id="path1402"
         cx="69.623703"
         cy="70.158257"
         r="63.476513" />
      <path
         id="path1418"
         style="fill:#1ca523;fill-opacity:1;stroke:none;stroke-width:1.55183px;stroke-linecap:butt;stroke-linejoin:miter;stroke-opacity:1"
         d="m 284.38086,27.177734 c -3.8591,0.03767 -7.81127,0.715281 -11.2832,1.056641 -6.49959,0.639031 -13.00492,0.888542 -19.49219,1.707031 -5.0872,0.641842 -10.58558,2.040617 -15.69922,2.13086 -3.99338,0.07043 -8.99263,0.878873 -12.97656,0.214843 -2.45729,-0.409539 -4.77242,-1.637798 -7.11133,-2.794921 a 239.91125,239.91125 0 0 0 -37.41211,10.472656 c -0.90669,1.89503 -1.30899,3.905486 -0.85742,5.8125 0.6928,2.925857 8.53259,1.478098 10.30664,0.851562 11.07168,-3.910118 24.07122,-14.177183 36.14258,-7.091797 3.17243,1.862056 6.49924,7.693362 10.13086,10.183594 3.11312,2.13473 6.53266,2.525025 8.88671,5.814453 2.86692,4.00616 3.11888,9.823403 5.15235,14.291016 3.71883,8.170556 14.7817,20.515667 24.64844,15.890625 1.76343,-9.833008 -0.0761,-15.389579 7.99804,-20.849609 3.85098,-2.604087 23.59802,-0.913426 24.82617,-4.267579 1.66261,-4.54063 -1.35636,-16.269118 -5.09374,-20.207031 -2.133,-2.247409 -5.50882,-2.811078 -7.82422,-4.746094 -0.52318,-0.437367 0.84108,-1.331832 1.00976,-1.652343 1.11561,-2.119668 -0.96388,-4.441676 -2.78515,-5.28125 -2.61972,-1.207619 -5.56489,-1.564454 -8.56641,-1.535157 z M 162.7207,47.316406 A 239.91125,239.91125 0 0 0 50.394531,154.94336 c -0.927331,3.16813 -1.368698,6.72352 -1.015625,10.91797 1.888067,22.43067 13.872095,38.48203 24.529297,57.48047 2.65378,4.73085 5.701646,9.48029 7.289063,14.71875 0.652966,2.15384 0.396472,4.70478 1.185546,6.71679 0.203415,0.51878 9.701779,9.29887 10.484376,9.97071 8.435452,7.24152 20.722062,9.88497 30.039062,15.83789 3.63021,2.31947 6.48199,4.84323 9.12305,8.26367 2.14015,2.77185 8.24111,12.52531 10.25,13.11914 4.9053,1.44999 10.23071,0.0697 15.3457,0.10547 -16.51186,-11.33404 -7.62213,-19.17151 -16.46875,-34.76367 -2.269,-3.99913 -8.10906,-2.41407 -10.25195,-5.97461 -2.83149,-4.70454 -0.2844,-12.50034 -4.32422,-16.74219 -2.03834,-2.14024 -7.02336,-0.27031 -9.53906,-0.0547 -6.1119,0.52389 -11.45219,-3.5738 -14.04297,-8.74414 -2.61465,-5.21787 1.33467,-14.35627 4.44336,-18.61133 7.96799,-10.90621 32.05636,-7.24736 44.67382,-10.28906 1.42673,-0.34394 3.51628,-0.39805 4.74024,-1.2793 3.71526,-2.67497 7.54194,-11.53952 9.83594,-15.51757 2.5929,-4.49645 5.57802,-8.85662 8.82617,-12.9043 4.67534,-5.8262 9.17502,-12.06242 15.64258,-16.05078 4.03756,-2.48981 9.01188,-3.58069 12.62109,-6.7207 5.40276,-4.70036 6.26807,-12.53221 10.48633,-18.12696 0.35312,-0.46839 1.17687,-1.22039 1.89453,-1.12109 2.12966,0.29488 4.28231,1.84885 6.2793,2.61133 5.78897,2.21034 12.97115,4.50525 18.60351,0.85546 2.33469,-1.5119 2.87197,-2.94856 2.3711,-5.65234 -0.86008,-4.64438 -5.17981,-6.57077 -7.11133,-10.61133 -2.11635,-4.42711 -1.40635,-9.50849 -3.61133,-13.863278 -1.38905,-2.743355 -4.47964,-3.277532 -6.81445,-4.853516 -2.00339,-1.352311 -3.42804,-3.115609 -5.57032,-4.373047 -5.08131,-2.982523 -10.78136,-4.677047 -15.81836,-7.783203 -3.97372,-2.45049 -11.30313,-9.499576 -16.65039,-6.558594 -6.4224,3.532317 -10.16227,13.881871 -12.85546,20.09961 -1.36401,3.14914 -2.25995,6.051078 -2.66407,5.869138 -3.889,-1.750036 -7.04384,-5.677653 -10.66601,-7.947263 -2.57852,-1.615642 -5.14365,-2.153235 -7.58399,-4.052735 -1.66817,-1.298498 -3.49537,-3.211353 -4.02734,-5.332031 -0.82243,-3.278003 4.80087,-8.744586 5.92383,-11.728515 1.67533,-4.451626 1.73029,-9.427271 2.84375,-14.025391 0.67048,-2.768622 3.0651,-6.839615 3.91015,-10.511719 z m 210.40039,4.244141 c -4.27234,4.879675 7.20796,20.900376 2.29883,26.158203 1.22289,0.06452 2.55514,-0.451877 3.67188,0.05078 0.51749,0.232933 -2.52068,6.296698 1.1289,7.679688 1.5916,0.603167 3.6722,-0.391149 5.09375,0.691406 3.00254,2.286576 4.96434,6.766881 8.5293,8.371094 1.75521,0.789887 5.84062,1.244434 6.93555,2.722656 2.43473,3.286835 -5.44787,12.482765 -7.22852,14.664065 -0.93747,1.1484 -8.17778,7.2912 -7.9414,7.83789 1.51751,3.51182 16.39843,11.3156 13.56835,15.73047 -1.39952,2.18315 -9.56269,1.72554 -12.26562,4.1582 -6.6954,6.02587 -2.64911,25.4056 3.61523,29.59375 2.92162,1.95332 6.35916,0.22734 9.1836,-0.90625 11.45042,-4.59563 10.98852,-11.08431 14.75195,-21.86133 0.6545,-1.87432 3.29927,-6.21085 6.10156,-5.06445 2.00243,0.8192 3.39842,2.88722 5.27344,3.89062 5.38061,2.8793 7.6668,1.32338 13.33008,6.23828 2.6163,2.27056 5.63496,4.57629 8,7.0918 1.74977,1.86122 3.21006,4.7036 5.39062,6.13086 8.70528,5.69797 6.83744,-4.59752 14.16016,5.6543 1.45425,2.03586 7.75116,15.98148 2.9043,17.43554 -2.29017,0.68705 -11.82133,-5.26312 -13.39063,-4.47851 -1.08438,0.54223 -6.73397,7.90878 -8.4707,6.3457 -2.88926,-2.60036 -3.98301,-7.1125 -5.8086,-10.39843 -2.58198,-4.64758 -9.00244,-14.5586 -15.28515,-14.5586 -3.93007,0 -6.7104,3.41078 -10.25,4.53516 -5.7806,1.83618 -11.13612,-0.57567 -16.76758,2.71875 -6.41042,3.75006 -9.91037,28.31289 -12.02539,34.76367 -1.87208,5.71007 -7.26941,9.19471 -9.41992,14.77344 -1.30916,3.39596 -3.16999,9.41613 -2.48828,13.00976 0.57825,3.04836 3.4453,4.79675 3.07812,8.15821 -0.50445,4.61564 -3.4738,8.45597 -3.91015,13.01171 -0.59479,6.20893 3.25933,13.3024 5.6289,18.82227 2.17383,5.06374 12.85377,27.38997 17.1836,29.48828 3.09282,1.4988 6.74872,1.0601 9.95312,2.18555 4.71318,1.65534 9.44875,7.25683 14.57617,7.03711 1.89676,-0.0813 7.14648,-4.85257 8.23438,-3.94336 3.27443,2.7367 2.69902,11.07066 3.14062,14.71484 1.34472,11.09347 0.17096,31.93881 -3.14062,42.23438 -2.68543,8.34931 -7.02437,16.12865 -10.60547,24.10156 -5.17852,11.52884 -10.14911,23.33001 -16.29492,34.39258 -3.13622,5.64518 -14.23169,20.32349 -15.22461,25.5957 -0.33562,1.7825 1.44725,3.73562 3.19922,4.10352 9.16943,1.92563 14.6957,-7.15464 20.5,-12.10352 5.1679,-4.40632 11.33562,-7.59402 17.83203,-9.54297 1.97719,-0.59328 4.26534,-1.14242 6.59765,-1.4668 A 239.91125,239.91125 0 0 0 503.48242,265 239.91125,239.91125 0 0 0 487.12695,177.93945 c -0.56089,-1.29629 -1.13786,-2.58835 -1.74218,-3.86914 -3.29392,-6.98101 -7.08798,-14.02523 -9.78907,-21.33398 A 239.91125,239.91125 0 0 0 373.12109,51.560547 Z m -5.90625,39.763672 c -0.38036,0.006 -0.70219,0.142157 -0.91992,0.46875 -2.82942,4.244164 -2.69745,10.412541 -4.14844,15.146481 2.65847,1.64641 5.62167,3.27895 8.77149,3.78516 2.3473,0.37723 4.46348,-0.74805 6.75391,-0.74805 1.38778,0 2.99473,0.87531 4.26367,-0.0527 2.72292,-1.99113 -7.98177,-13.995497 -9.71485,-15.623049 -0.56867,-0.534089 -3.35705,-3.003155 -5.00586,-2.976562 z M 218.69922,276.69727 v 0.002 c -3.83438,0.19956 -15.38317,9.68238 -21.73828,9.04687 -10.14282,-1.01428 -20.34181,-9.93633 -27.72656,1.2793 -5.06661,7.69491 -2.14942,16.81686 -3.91016,24.74023 -0.71743,3.22847 -2.80559,5.52515 -3.08008,9.06641 -1.16459,15.02359 1.76913,33.04427 9.12305,46.28125 3.06849,5.52332 7.69772,9.65274 11.02148,14.93164 8.69616,13.81153 17.86034,28.55206 22.86719,44.15039 6.33123,19.72426 -0.0808,31.23132 0.83203,50.12696 0.24284,5.02658 1.31399,17.6739 7.22852,21.22265 2.43934,1.46362 5.68536,-0.14574 8.52929,-0.2168 1.86573,-19.81413 4.35093,-29.04561 21.80274,-40.52343 4.27245,-2.81004 8.94094,-5.2488 12.44336,-9.06446 7.03244,-7.66174 10.38703,-18.5342 18.24804,-25.38085 5.86933,-5.11197 14.73934,-1.42834 20.14454,-6.29297 2.81811,-2.53641 21.38684,-51.68825 20.85546,-54.28321 -1.64144,-8.01955 -34.75602,-22.46558 -42.54296,-28.47265 -8.11321,-6.25878 -8.32911,-18.78259 -14.57227,-23.89063 -6.82112,-5.58091 -18.10151,-3.15288 -24.17383,-10.34375 -5.11668,-6.05922 -6.36108,-18.87961 -14.69531,-22.28906 -0.18319,-0.075 -0.40063,-0.10311 -0.65625,-0.0898 z"
         transform="scale(0.26458333)" />
    </g>
  </g>
</svg>