<?xml version="1.0" encoding="UTF-8" standalone="no"?>
<svg
   xmlns:dc="http://purl.org/dc/elements/1.1/"
   xmlns:cc="http://creativecommons.org/ns#"
   xmlns:rdf="http://www.w3.org/1999/02/22-rdf-syntax-ns#"
   xmlns:svg="http://www.w3.org/2000/svg"
   xmlns="http://www.w3.org/2000/svg"
   xmlns:xlink="http://www.w3.org/1999/xlink"
   xmlns:sodipodi="http://sodipodi.sourceforge.net/DTD/sodipodi-0.dtd"
   xmlns:inkscape="http://www.inkscape.org/namespaces/inkscape"
   width="128"
   height="128"
   viewBox="0 0 33.866666 33.866668"
   version="1.1"
   id="svg8"
   inkscape:version="1.0.1 (3bc2e813f5, 2020-09-07)"
   sodipodi:docname="[anele fotowoltaiczne.svg">
  <defs
     id="defs2">
    <linearGradient
       inkscape:collect="always"
       id="linearGradient1383">
      <stop
         style="stop-color:#384370;stop-opacity:1;"
         offset="0"
         id="stop1379" />
      <stop
         style="stop-color:#272f4f;stop-opacity:1"
         offset="1"
         id="stop1381" />
    </linearGradient>
    <linearGradient
       inkscape:collect="always"
       xlink:href="#linearGradient1383"
       id="linearGradient1385"
       x1="13.394531"
       y1="268.44861"
       x2="13.394531"
       y2="279.15005"
       gradientUnits="userSpaceOnUse"
       gradientTransform="matrix(1,0,0,0.8280321,0.38008867,47.945019)" />
  </defs>
  <sodipodi:namedview
     id="base"
     pagecolor="#ffffff"
     bordercolor="#666666"
     borderopacity="1.0"
     inkscape:pageopacity="0.0"
     inkscape:pageshadow="2"
     inkscape:zoom="3.959798"
     inkscape:cx="-7.76567"
     inkscape:cy="49.989297"
     inkscape:document-units="mm"
     inkscape:current-layer="layer1"
     showgrid="false"
     units="px"
     showguides="true"
     inkscape:window-width="1920"
     inkscape:window-height="1057"
     inkscape:window-x="-8"
     inkscape:window-y="-8"
     inkscape:window-maximized="1"
     inkscape:document-rotation="0"
     inkscape:guide-bbox="true" />
  <metadata
     id="metadata5">
    <rdf:RDF>
      <cc:Work
         rdf:about="">
        <dc:format>image/svg+xml</dc:format>
        <dc:type
           rdf:resource="http://purl.org/dc/dcmitype/StillImage" />
        <dc:title></dc:title>
      </cc:Work>
    </rdf:RDF>
  </metadata>
  <g
     inkscape:label="Layer 1"
     inkscape:groupmode="layer"
     id="layer1"
     transform="translate(0,-263.13332)">
    <g
       id="g1477"
       transform="matrix(1.9158076,0,0,1.9158076,-9.9424063,-250.36009)">
      <path
         id="rect1261"
         style="opacity:1;fill:url(#linearGradient1385);fill-opacity:1;stroke:none;stroke-width:0.221682;stroke-linecap:round;stroke-linejoin:round;stroke-miterlimit:4;stroke-dasharray:none"
         d="m 7.4943831,270.38539 c -0.2035927,0 -0.3347784,0.11666 -0.3674195,0.25716 l -0.1922362,0.82799 2.5228433,10e-4 0.168465,-1.08643 z m 2.3409423,0 -0.168982,1.08643 2.6675376,8.6e-4 0.06201,-1.08729 z m 2.7683066,0 -0.06253,1.08729 2.86029,8.5e-4 -0.03979,-1.08814 z m 2.965711,0 0.03979,1.08857 2.625163,8.6e-4 -0.162264,-1.08943 z m 2.711462,0 0.162264,1.08985 2.71508,8.6e-4 -0.19327,-0.83355 c -0.03253,-0.1403 -0.163827,-0.25716 -0.36742,-0.25716 z m -11.3863853,1.25716 -0.3188435,1.37355 2.6416992,0.001 0.2134235,-1.37356 z m 2.7450521,10e-4 -0.2134238,1.37356 2.819466,8.5e-4 0.07855,-1.37355 z m 2.8918132,8.6e-4 -0.07855,1.37355 3.004984,8.6e-4 -0.05013,-1.37355 z m 3.08405,8.6e-4 0.05013,1.37355 2.799312,8.5e-4 -0.204639,-1.37355 z m 2.853572,0.001 0.204639,1.37355 2.84272,0.001 -0.318326,-1.37397 z m -11.9331218,1.54086 -0.3601847,1.54984 2.7739909,0.001 0.2408121,-1.54985 z m 2.8633912,10e-4 -0.2408124,1.54985 2.988965,8.5e-4 0.08837,-1.54984 z m 3.0437416,8.6e-4 -0.08837,1.54984 3.166215,4.3e-4 -0.05633,-1.54984 z m 3.228744,0.001 0.05684,1.54942 2.992582,8.5e-4 -0.230993,-1.54941 z m 3.027722,10e-4 0.230994,1.54941 2.985347,10e-4 -0.359151,-1.54942 z m -12.5635744,1.71672 -0.3824055,1.64741 2.913517,0.001 0.2557984,-1.64741 z m 2.9961996,10e-4 -0.2563151,1.64741 3.1677659,8.5e-4 0.09405,-1.6474 z m 3.2127238,8.6e-4 -0.09405,1.6474 3.336747,0.002 -0.05994,-1.64741 z m 3.389974,0.002 0.06046,1.64741 3.19722,8.5e-4 -0.245463,-1.6474 z m 3.221509,8.6e-4 0.245463,1.6474 3.136242,0.002 -0.382405,-1.64783 z m -13.2426028,1.81428 -0.4221964,1.81685 c -0.032643,0.14052 0.1638268,0.25717 0.3674194,0.25717 H 8.3181053 L 8.6400495,276.728 Z m 3.135726,10e-4 -0.322461,2.07273 h 3.3884238 l 0.118339,-2.07188 z m 3.3915248,8.5e-4 -0.11834,2.07188 h 3.547071 l -0.07597,-2.07017 z m 3.560506,0.002 0.07545,2.07017 h 3.449919 l -0.308508,-2.06931 z m 3.426147,8.6e-4 0.308509,2.06931 h 2.89388 c 0.203593,0 0.399959,-0.11686 0.367419,-0.25717 l -0.419613,-1.81043 z" />
      <path
         id="rect1387"
         style="opacity:1;fill:#414c81;fill-opacity:1;stroke:none;stroke-width:0.473119;stroke-linecap:round;stroke-linejoin:round;stroke-miterlimit:4;stroke-dasharray:none"
         d="m 7.4943874,270.38498 c -0.2035921,0 -0.3347794,0.11666 -0.3674195,0.25716 l -0.062012,0.26701 2.3972697,0.53188 0.1581298,-1.01797 -0.1715656,-0.0381 z m 5.9334876,0 1.949752,0.4326 -0.01602,-0.4326 z m 2.141472,0 0.01757,0.47882 2.643767,0.58664 -0.08113,-0.54428 -2.348694,-0.52118 z m -5.7469364,0.083 -0.1560629,1.00342 2.6675373,8.6e-4 0.02532,-0.44159 z m 8.5431474,0.48609 0.07751,0.52033 2.271179,4.2e-4 z m -5.801713,0.12195 -0.02274,0.39624 1.810225,4.2e-4 z m -2.188497,0.56782 1.924431,0.42662 0.02429,-0.42619 z m 2.155941,4.3e-4 -0.02687,0.47154 2.944007,0.6534 -0.03876,-1.06161 -0.282154,-0.0625 z m 6.58151,0.002 2.197799,0.4878 -0.113171,-0.48694 z m -3.493326,0.10826 0.03876,1.06161 0.915706,0.20325 1.890841,4.3e-4 -0.09767,-0.65554 z m 2.963643,0.65768 0.09043,0.60761 2.652034,8.6e-4 z m -1.232483,0.7792 1.178223,0.26145 -0.03876,-0.26102 z m 1.348755,4.3e-4 0.04599,0.30937 3.038574,0.67394 -0.227893,-0.98246 z" />
      <rect
         style="opacity:1;fill:#6f7c91;fill-opacity:1;stroke:none;stroke-width:0.216371;stroke-linecap:round;stroke-linejoin:round;stroke-miterlimit:4;stroke-dasharray:none"
         id="rect1468"
         width="0.94494051"
         height="2.5040922"
         x="13.571891"
         y="279.10281"
         ry="0.23623511" />
      <path
         id="rect1470"
         style="opacity:1;fill:#6f7c91;fill-opacity:1;stroke:none;stroke-width:0.198749;stroke-linecap:round;stroke-linejoin:round;stroke-miterlimit:4;stroke-dasharray:none"
         d="m 9.6744256,281.77225 h 8.7879464 c 0.183224,0 0.250109,0.0935 0.330729,0.18604 l 1.157552,1.32882 c 0.08062,0.0925 -0.147505,0.18603 -0.330729,0.18603 H 8.4696265 c -0.183224,0 -0.4139754,-0.0942 -0.3307292,-0.18603 l 1.2047991,-1.32882 c 0.083242,-0.0918 0.1475052,-0.18604 0.3307292,-0.18604 z"
         sodipodi:nodetypes="sssssssss" />
    </g>
  </g>
</svg>
