<?xml version="1.0" encoding="UTF-8" standalone="no"?>
<svg
   xmlns:dc="http://purl.org/dc/elements/1.1/"
   xmlns:cc="http://creativecommons.org/ns#"
   xmlns:rdf="http://www.w3.org/1999/02/22-rdf-syntax-ns#"
   xmlns:svg="http://www.w3.org/2000/svg"
   xmlns="http://www.w3.org/2000/svg"
   xmlns:sodipodi="http://sodipodi.sourceforge.net/DTD/sodipodi-0.dtd"
   xmlns:inkscape="http://www.inkscape.org/namespaces/inkscape"
   width="128"
   height="128"
   viewBox="0 0 33.866666 33.866668"
   version="1.1"
   id="svg8"
   inkscape:version="1.0.1 (3bc2e813f5, 2020-09-07)"
   sodipodi:docname="pieniądzesvg.svg">
  <defs
     id="defs2" />
  <sodipodi:namedview
     id="base"
     pagecolor="#ffffff"
     bordercolor="#666666"
     borderopacity="1.0"
     inkscape:pageopacity="0.0"
     inkscape:pageshadow="2"
     inkscape:zoom="3.959798"
     inkscape:cx="-5.4442392"
     inkscape:cy="67.484005"
     inkscape:document-units="mm"
     inkscape:current-layer="layer1"
     showgrid="false"
     units="px"
     showguides="true"
     inkscape:window-width="1920"
     inkscape:window-height="1057"
     inkscape:window-x="-8"
     inkscape:window-y="-8"
     inkscape:window-maximized="1"
     inkscape:document-rotation="0"
     inkscape:guide-bbox="true" />
  <metadata
     id="metadata5">
    <rdf:RDF>
      <cc:Work
         rdf:about="">
        <dc:format>image/svg+xml</dc:format>
        <dc:type
           rdf:resource="http://purl.org/dc/dcmitype/StillImage" />
        <dc:title></dc:title>
      </cc:Work>
    </rdf:RDF>
  </metadata>
  <g
     inkscape:label="Layer 1"
     inkscape:groupmode="layer"
     id="layer1"
     transform="translate(0,-263.13332)">
    <g
       id="g1884"
       transform="matrix(1.0167709,0,0,1.0167709,-0.55807577,-4.2601342)">
      <path
         id="rect1766"
         style="opacity:1;fill:#1e6f46;fill-opacity:1;stroke:none;stroke-width:0.369925;stroke-linecap:round;stroke-linejoin:round;stroke-miterlimit:4;stroke-dasharray:none"
         d="m 1.6416579,269.2925 c -0.1322453,0 -0.2382284,0.1011 -0.2382284,0.22737 v 14.57896 c 0,0.12619 0.1059835,0.22738 0.2382284,0.22738 H 31.43312 c 0.132247,0 0.238228,-0.10124 0.238228,-0.22738 v -14.57896 c 0,-0.1262 -0.105989,-0.22737 -0.238228,-0.22737 z m 1.0759033,1.03766 H 30.357216 c 0.12269,0 0.221176,0.0876 0.221176,0.19637 v 12.56564 c 0,0.10869 -0.09848,0.19637 -0.221176,0.19637 H 2.7175612 c -0.1226939,0 -0.2211753,-0.0876 -0.2211753,-0.19637 v -12.56564 c 0,-0.10879 0.098481,-0.19637 0.2211753,-0.19637 z" />
      <g
         aria-label="$"
         id="text1807"
         style="font-style:normal;font-variant:normal;font-weight:normal;font-stretch:normal;font-size:7.76578px;line-height:1.25;font-family:Arial;-inkscape-font-specification:'Arial, Normal';font-variant-ligatures:normal;font-variant-caps:normal;font-variant-numeric:normal;font-variant-east-asian:normal;fill:#1e6f46;fill-opacity:1;stroke-width:1.45608"
         transform="translate(-0.28203303,-1.0350195)">
        <path
           d="m 16.637412,281.27982 v -0.68254 q -0.511905,-0.0645 -0.834215,-0.22751 -0.318518,-0.16684 -0.553615,-0.53465 -0.231305,-0.36782 -0.269224,-0.89868 l 0.686331,-0.12892 q 0.07963,0.54982 0.2806,0.80767 0.288183,0.36402 0.690123,0.40573 v -2.17275 q -0.4209,-0.0796 -0.860758,-0.3261 -0.326102,-0.18201 -0.504321,-0.50432 -0.174427,-0.32231 -0.174427,-0.73184 0,-0.72804 0.515697,-1.17927 0.345061,-0.30336 1.023809,-0.37161 v -0.3261 h 0.401939 v 0.3261 q 0.595326,0.0569 0.94418,0.34885 0.447442,0.37161 0.538447,1.02002 l -0.70529,0.10617 q -0.06067,-0.40194 -0.254057,-0.61428 -0.189594,-0.21614 -0.52328,-0.28439 v 1.96799 q 0.515697,0.12892 0.68254,0.20097 0.318518,0.1403 0.519488,0.34127 0.20097,0.20097 0.307142,0.47777 0.109965,0.27681 0.109965,0.59912 0,0.70908 -0.451234,1.18307 -0.451234,0.47398 -1.167901,0.50811 v 0.69012 z m 0,-5.97601 q -0.398148,0.0607 -0.629453,0.31852 -0.227513,0.25785 -0.227513,0.6105 0,0.34885 0.193386,0.58395 0.197178,0.23509 0.66358,0.37539 z m 0.401939,4.71711 q 0.398148,-0.0493 0.655996,-0.34506 0.26164,-0.29577 0.26164,-0.73184 0,-0.3716 -0.185802,-0.59532 -0.18201,-0.22752 -0.731834,-0.40573 z"
           style="font-style:normal;font-variant:normal;font-weight:normal;font-stretch:normal;font-size:7.76578px;font-family:Arial;-inkscape-font-specification:'Arial, Normal';font-variant-ligatures:normal;font-variant-caps:normal;font-variant-numeric:normal;font-variant-east-asian:normal;fill:#1e6f46;fill-opacity:1;stroke-width:1.45608"
           id="path1828" />
      </g>
      <path
         id="path1811"
         style="opacity:1;fill:#1e6f46;fill-opacity:1;stroke:none;stroke-width:0.296927;stroke-linecap:round;stroke-linejoin:round;stroke-miterlimit:4;stroke-dasharray:none"
         d="m 8.4261825,276.80936 a 2.1969864,2.1969864 0 0 1 -2.1969864,2.19698 2.1969864,2.1969864 0 0 1 -2.1969865,-2.19698 2.1969864,2.1969864 0 0 1 2.1969865,-2.19699 2.1969864,2.1969864 0 0 1 2.1969864,2.19699 z" />
      <path
         id="path1811-4"
         style="opacity:1;fill:#1e6f46;fill-opacity:1;stroke:none;stroke-width:0.296926;stroke-linecap:round;stroke-linejoin:round;stroke-miterlimit:4;stroke-dasharray:none"
         d="m 29.049508,276.80936 a 2.1969864,2.1969864 0 0 1 -2.196986,2.19698 2.1969864,2.1969864 0 0 1 -2.196987,-2.19698 2.1969864,2.1969864 0 0 1 2.196987,-2.19699 2.1969864,2.1969864 0 0 1 2.196986,2.19699 z" />
      <path
         id="path1841"
         style="opacity:1;fill:#1e6f46;fill-opacity:1;stroke:none;stroke-width:0.264999;stroke-linecap:round;stroke-linejoin:round;stroke-miterlimit:4;stroke-dasharray:none"
         d="m 16.500181,270.62008 a 6.1893597,6.1893597 0 0 0 -6.152079,6.18928 6.1893597,6.1893597 0 0 0 6.189287,6.18929 6.1893597,6.1893597 0 0 0 6.189286,-6.18929 6.1893597,6.1893597 0 0 0 -6.189286,-6.18928 6.1893597,6.1893597 0 0 0 -0.03721,0 z m 0.03721,0.73225 a 5.4570312,5.4570312 0 0 1 5.457031,5.45703 5.4570312,5.4570312 0 0 1 -5.457031,5.45703 5.4570312,5.4570312 0 0 1 -5.457032,-5.45703 5.4570312,5.4570312 0 0 1 5.457032,-5.45703 z" />
    </g>
    <path
       id="rect1766-1"
       style="opacity:1;fill:#1e6f46;fill-opacity:1;stroke:none;stroke-width:0.376129;stroke-linecap:round;stroke-linejoin:round;stroke-miterlimit:4;stroke-dasharray:none"
       d="m 32.161558,271.14187 v 1.23897 c 5.05e-4,0.005 0.0037,0.0102 0.0037,0.0158 v 12.77637 c 0,0.11052 -0.100132,0.19967 -0.224884,0.19967 H 3.8371538 c -0.00112,0 -0.00204,-5.2e-4 -0.00315,-5.3e-4 H 2.500983 v 0.8244 c 0,0.1283 0.1077608,0.23119 0.2422235,0.23119 H 33.034298 c 0.134467,0 0.242223,-0.10294 0.242223,-0.23119 V 271.3731 c 0,-0.12832 -0.107764,-0.2312 -0.242223,-0.2312 z" />
  </g>
</svg>
