<?xml version="1.0" encoding="UTF-8" standalone="no"?>
<svg
   xmlns:dc="http://purl.org/dc/elements/1.1/"
   xmlns:cc="http://creativecommons.org/ns#"
   xmlns:rdf="http://www.w3.org/1999/02/22-rdf-syntax-ns#"
   xmlns:svg="http://www.w3.org/2000/svg"
   xmlns="http://www.w3.org/2000/svg"
   xmlns:sodipodi="http://sodipodi.sourceforge.net/DTD/sodipodi-0.dtd"
   xmlns:inkscape="http://www.inkscape.org/namespaces/inkscape"
   width="128"
   height="128"
   viewBox="0 0 33.866666 33.866668"
   version="1.1"
   id="svg8"
   inkscape:version="1.0.1 (3bc2e813f5, 2020-09-07)"
   sodipodi:docname="reaktor (1).svg">
  <defs
     id="defs2" />
  <sodipodi:namedview
     id="base"
     pagecolor="#ffffff"
     bordercolor="#666666"
     borderopacity="1.0"
     inkscape:pageopacity="0.0"
     inkscape:pageshadow="2"
     inkscape:zoom="1.979899"
     inkscape:cx="27.312049"
     inkscape:cy="129.18227"
     inkscape:document-units="mm"
     inkscape:current-layer="layer1"
     showgrid="false"
     units="px"
     showguides="true"
     inkscape:window-width="1920"
     inkscape:window-height="1057"
     inkscape:window-x="-8"
     inkscape:window-y="-8"
     inkscape:window-maximized="1"
     inkscape:document-rotation="0"
     inkscape:guide-bbox="true" />
  <metadata
     id="metadata5">
    <rdf:RDF>
      <cc:Work
         rdf:about="">
        <dc:format>image/svg+xml</dc:format>
        <dc:type
           rdf:resource="http://purl.org/dc/dcmitype/StillImage" />
        <dc:title />
      </cc:Work>
    </rdf:RDF>
  </metadata>
  <g
     inkscape:label="Layer 1"
     inkscape:groupmode="layer"
     id="layer1"
     transform="translate(0,-263.13332)">
    <path
       id="rect1514"
       style="opacity:1;fill:#aca544;fill-opacity:1;stroke:none;stroke-width:0.276824;stroke-linecap:round;stroke-linejoin:round;stroke-miterlimit:4;stroke-dasharray:none"
       d="m 5.4552207,273.93402 c -0.07321,0 -0.132179,0.0589 -0.132179,0.13218 v 2.0598 c 0,0.0732 0.05898,0.13218 0.132179,0.13218 H 20.033269 c 0.07321,0 0.132179,-0.0589 0.132179,-0.13218 v -2.0598 c 0,-0.0732 -0.05897,-0.13218 -0.132179,-0.13218 z m -0.132179,2.57403 c 0,2.42787 -1.873567,11.69864 -2.810562,17.54803 H 22.976008 c -0.9245,-5.84939 -2.773457,-15.10774 -2.773457,-17.54803 z m 10.0497263,3.73176 a 5.3848926,5.3848926 0 0 1 2.756066,4.69934 5.3848926,5.3848926 0 0 1 -0.0034,0.19711 l -3.432617,-0.0725 a 1.9611647,1.9611647 0 0 0 -1.115992,-1.55717 z m -5.257627,5.8e-4 1.795444,3.26682 a 1.9611647,1.9611647 0 0 0 -1.115415,1.55658 l -3.4320363,0.0725 a 5.3848926,5.3848926 0 0 1 -0.0034,-0.19711 5.3848926,5.3848926 0 0 1 2.7554873,-4.69877 z m 2.618669,3.599 a 1.4429727,1.4429727 0 0 1 0.01043,0 1.4429727,1.4429727 0 0 1 1.442964,1.44297 1.4429727,1.4429727 0 0 1 -1.442964,1.44296 1.4429727,1.4429727 0 0 1 -1.442963,-1.44296 1.4429727,1.4429727 0 0 1 1.432528,-1.44297 z m -1.118311,3.04652 a 1.9611647,1.9611647 0 0 0 1.128745,0.35712 1.9611647,1.9611647 0 0 0 1.128167,-0.35712 l 1.624422,2.68128 a 5.3848926,5.3848926 0 0 1 -2.753167,0.75713 5.3848926,5.3848926 0 0 1 -2.7525883,-0.75713 z m -9.0015653,7.43222 c -0.0732,0 -0.13218,0.0591 -0.13218,0.13217 v 2.05922 c 0,0.0732 0.05898,0.13219 0.13218,0.13219 H 22.916297 c 0.07321,0 0.132181,-0.0591 0.132181,-0.13219 v -2.05922 c 0,-0.0732 -0.05898,-0.13217 -0.132181,-0.13217 z" />
    <path
       id="path1666"
       style="opacity:1;fill:#aca544;fill-opacity:1;stroke:none;stroke-width:1.00157;stroke-linecap:round;stroke-linejoin:round;stroke-miterlimit:4;stroke-dasharray:none"
       d="M 64.648438 1.515625 A 13.131983 14.142136 0 0 0 51.519531 15.503906 A 11.869292 11.995562 0 0 0 41.892578 23.259766 A 11.364216 10.227795 0 0 0 31.314453 33.460938 A 11.364216 10.227795 0 0 0 33.757812 39.794922 L 76.705078 39.794922 C 77.03333 39.794922 77.296875 40.058429 77.296875 40.386719 L 77.296875 44.308594 A 13.131983 9.2176416 0 0 0 80.697266 42.923828 A 12.500638 12.753175 0 0 0 83.210938 43.183594 A 12.500638 12.753175 0 0 0 89.167969 41.642578 A 10.985409 9.4070452 0 0 0 99.5 47.855469 A 10.985409 9.4070452 0 0 0 106.44141 45.740234 A 11.490485 10.354064 0 0 0 114.52539 48.740234 A 11.490485 10.354064 0 0 0 126.01562 38.386719 A 11.490485 10.354064 0 0 0 122.75391 31.160156 A 13.131983 11.932427 0 0 0 125.89062 23.423828 A 13.131983 11.932427 0 0 0 112.75781 11.490234 A 13.131983 11.932427 0 0 0 105.14062 13.701172 A 12.500638 12.753176 0 0 0 93.439453 5.4296875 A 12.500638 12.753176 0 0 0 86.416016 7.6347656 A 12.2481 11.364216 0 0 0 80.685547 6.3144531 A 12.2481 11.364216 0 0 0 75.34375 7.4511719 A 13.131983 14.142136 0 0 0 64.648438 1.515625 z "
       transform="matrix(0.26458333,0,0,0.26458333,0,263.13332)" />
  </g>
</svg>